<?xml version="1.0" encoding="UTF-8"?>
<svg width="240" height="240" viewBox="0 0 240 240" xmlns="http://www.w3.org/2000/svg">
    <!-- Background circle -->
    <circle cx="120" cy="120" r="100" fill="#2E7D32" stroke="#1B5E20" stroke-width="2" />

    <!-- Circuit board pattern -->
    <g stroke="#81C784" stroke-width="1.5" fill="none" opacity="0.7">
        <line x1="60" y1="80" x2="180" y2="80" />
        <line x1="60" y1="100" x2="180" y2="100" />
        <line x1="60" y1="120" x2="180" y2="120" />
        <line x1="60" y1="140" x2="180" y2="140" />
        <line x1="60" y1="160" x2="180" y2="160" />
        <line x1="80" y1="60" x2="80" y2="180" />
        <line x1="100" y1="60" x2="100" y2="180" />
        <line x1="120" y1="60" x2="120" y2="180" />
        <line x1="140" y1="60" x2="140" y2="180" />
        <line x1="160" y1="60" x2="160" y2="180" />
    </g>

    <!-- Small circuit elements -->
    <rect x="75" y="75" width="10" height="10" fill="#A5D6A7" rx="1" />
    <rect x="95" y="95" width="10" height="10" fill="#A5D6A7" rx="1" />
    <rect x="135" y="75" width="10" height="10" fill="#A5D6A7" rx="1" />
    <rect x="155" y="95" width="10" height="10" fill="#A5D6A7" rx="1" />
    <rect x="75" y="135" width="10" height="10" fill="#A5D6A7" rx="1" />
    <rect x="155" y="135" width="10" height="10" fill="#A5D6A7" rx="1" />

    <!-- Main text -->
    <text x="120" y="200" font-family="Arial, sans-serif" font-size="20" font-weight="bold"
        text-anchor="middle" fill="#1B5E20">TY33A</text>
    <text x="120" y="220" font-family="Arial, sans-serif" font-size="14" text-anchor="middle"
        fill="#1B5E20">8G 1G A33</text>
</svg>